<svg id="Layer_1" data-name="Layer 1" xmlns="http://www.w3.org/2000/svg" xmlns:xlink="http://www.w3.org/1999/xlink" viewBox="0 0 34 22"><defs><style>.cls-1{fill:url(#linear-gradient);}.cls-2{fill:#fff;}</style><linearGradient id="linear-gradient" x1="17" x2="17" y2="22" gradientUnits="userSpaceOnUse"><stop offset="0" stop-color="#fff"/><stop offset="0" stop-color="#3b7c9e"/><stop offset="1" stop-color="#015e9b"/></linearGradient></defs><title>Artboard 1</title><rect class="cls-1" width="34" height="22"/><g id="Layer_1_copy" data-name="Layer 1 copy"><path class="cls-2" d="M13,13.72l1.34-1.44v2.93ZM8.74,12.64v.66h1.91V14H8.74v.73h2.14l1-1.07-1-1.06H8.74Zm23.72.55a1.61,1.61,0,0,1,.44,1.2c0,1.1-.74,1.75-2,1.75h-1.7a.6.6,0,0,1-.55-.37,2.23,2.23,0,0,1-1.31.37h-1.7a.59.59,0,0,1-.26-.07.6.6,0,0,1-.26.07H22.23a.6.6,0,0,1-.27-.07.57.57,0,0,1-.27.07h-.88a.6.6,0,0,1-.6-.6V15c0-.05,0-.13,0-.2h-.51v.73a.6.6,0,0,1-.6.6h-.88a.6.6,0,0,1-.6-.6v-.93a2.55,2.55,0,0,1-1.33.31h-.48v.62a.6.6,0,0,1-.6.6h-1.7a.6.6,0,0,1-.45-.2l-.63-.71-.67.72a.6.6,0,0,1-.44.19H7.87a.6.6,0,0,1-.6-.6V11.89a.6.6,0,0,1,.6-.6h3.51a.59.59,0,0,1,.45.2l.63.7.66-.71a.6.6,0,0,1,.44-.19h2.79a2.41,2.41,0,0,1,1.35.33.6.6,0,0,1,.53-.33h2a2.71,2.71,0,0,1,1.33.24l.12.09a.6.6,0,0,1,.53-.33h2.91a.59.59,0,0,1,.52.31,2,2,0,0,1,1.15-.31h1.75a.6.6,0,0,1,.56.4,1.94,1.94,0,0,1,1.25-.4h1.75a.6.6,0,0,1,.6.6v.78a.6.6,0,0,1-.28.51Zm-14.64-.1c0-1-.78-1.2-1.47-1.2H13.56l-1.11,1.2-1.07-1.2H7.87v3.65h3.46l1.12-1.21,1.07,1.21h1.7V14.31H16.3C17.07,14.31,17.82,14.1,17.82,13.09Zm3.3.75a1,1,0,0,0,.62-1,.86.86,0,0,0-.45-.81,2.16,2.16,0,0,0-1-.17h-2v3.65h.88V14.2H20c.32,0,.51,0,.64.16s.14.5.14.71v.46h.88v-.72a1.06,1.06,0,0,0-.14-.67A.93.93,0,0,0,21.13,13.84Zm4-2H22.23v3.65h2.91v-.76h-2v-.73h2v-.75h-2v-.66h2Zm3.59,2.5a1,1,0,0,0-.26-.77,1.41,1.41,0,0,0-1-.29H27a1,1,0,0,1-.34,0,.31.31,0,0,1-.06-.54.59.59,0,0,1,.35-.07h1.6v-.78H26.81c-.92,0-1.25.56-1.25,1.09,0,1.15,1,1.1,1.84,1.13a.46.46,0,0,1,.31.08.31.31,0,0,1,.11.24.32.32,0,0,1-.1.24.5.5,0,0,1-.36.09H25.67v.78h1.7C28.24,15.54,28.73,15.17,28.73,14.38Zm3.57,0a1,1,0,0,0-.26-.77,1.42,1.42,0,0,0-1-.29h-.47a1,1,0,0,1-.34,0,.31.31,0,0,1-.06-.54.59.59,0,0,1,.35-.07h1.6v-.78H30.37c-.92,0-1.25.56-1.25,1.09,0,1.15,1,1.1,1.84,1.13a.46.46,0,0,1,.31.08.31.31,0,0,1,.11.24.32.32,0,0,1-.1.24.5.5,0,0,1-.36.09H29.23v.78h1.7C31.81,15.54,32.3,15.17,32.3,14.38ZM16.35,12.64H15.22v.93h1.13c.34,0,.54-.17.54-.48S16.67,12.64,16.35,12.64Zm.51-5.54A.38.38,0,0,0,17,6.75a.33.33,0,0,0-.18-.32.9.9,0,0,0-.41-.07H15.37v.81h1.06A.82.82,0,0,0,16.87,7.1Zm3.73,5.61a.86.86,0,0,0-.42-.07H19.11v.82h1.06a.85.85,0,0,0,.43-.07.39.39,0,0,0,.18-.35A.35.35,0,0,0,20.6,12.71Zm3.22-6.48-.6,1.45h1.2ZM2.52,7.68H3.71l-.6-1.45ZM7.4,9.86a.6.6,0,0,1-.55-.36l-.11-.26h0a.6.6,0,0,1-.6.6H4.36a.6.6,0,0,1-.56-.37L3.62,9h-1l-.18.44a.6.6,0,0,1-.56.37H.92A.6.6,0,0,1,.37,9L1.93,5.37A.6.6,0,0,1,2.49,5h1.3a.6.6,0,0,1,.55.36l.33.76V5.6a.6.6,0,0,1,.6-.6H6.69a.61.61,0,0,1,.55.35l.57,1.24.52-1.22A.6.6,0,0,1,8.88,5h1.45a.59.59,0,0,1,.33.11A.59.59,0,0,1,11,5H13.9a.58.58,0,0,1,.3.09A.59.59,0,0,1,14.5,5h2a2.57,2.57,0,0,1,1.36.26l.11.08A.6.6,0,0,1,18.51,5h.89a.59.59,0,0,1,.58.51A2.39,2.39,0,0,1,21.63,5h.84a.6.6,0,0,1,.36.12A.6.6,0,0,1,23.19,5H24.5a.6.6,0,0,1,.55.37l.32.75V5.6A.6.6,0,0,1,26,5H27.3a.61.61,0,0,1,.52.29l.41.69V5.6a.6.6,0,0,1,.6-.6h.89a.6.6,0,0,1,.6.6V9.25a.6.6,0,0,1-.6.6H28.49A.6.6,0,0,1,28,9.56l-.54-.89v.58a.6.6,0,0,1-.6.6H25.06a.6.6,0,0,1-.56-.37L24.32,9h-1l-.18.44a.6.6,0,0,1-.56.38h-1A2.53,2.53,0,0,1,20,9.37a.59.59,0,0,1-.58.49h-.89a.59.59,0,0,1-.27-.07.59.59,0,0,1-.27.07h-.88a.6.6,0,0,1-.6-.6V8.72s0-.12,0-.18H16v.73a.6.6,0,0,1-.6.6H14.5a.59.59,0,0,1-.3-.09.58.58,0,0,1-.3.09H11a.59.59,0,0,1-.33-.11.6.6,0,0,1-.33.11H9.44a.6.6,0,0,1-.6-.6h0l-.12.26a.6.6,0,0,1-.55.36Zm12.43-2.4a1.83,1.83,0,0,0,.47,1.39,1.83,1.83,0,0,0,1.26.4h1l.33-.81h1.81l.34.81h1.78V6.51l1.65,2.74h1.24V5.6h-.89V8.14L27.3,5.6H26V9.05L24.5,5.6H23.19L22,8.47h-.39A.84.84,0,0,1,21,8.28a1.26,1.26,0,0,1-.24-.86A1.2,1.2,0,0,1,21,6.6a.84.84,0,0,1,.67-.22h.83V5.6h-.84A1.77,1.77,0,0,0,20.3,6,2,2,0,0,0,19.83,7.46ZM21.64,7c-.2,0-.23,0-.25,0a.89.89,0,0,0-.07.4.93.93,0,0,0,.07.43l.17,0L21.94,7ZM18.51,9.25h.89V5.6h-.89Zm-4,0h.87V7.92h.94a.86.86,0,0,1,.64.16,1.1,1.1,0,0,1,.14.71v.46H18V8.54a1,1,0,0,0-.14-.67,1,1,0,0,0-.43-.31,1,1,0,0,0,.61-1,.85.85,0,0,0-.44-.81,2.05,2.05,0,0,0-1.06-.17h-2V9.25ZM11,9.25H13.9V8.5h-2V7.77h2V7h-2V6.36h2V5.6H11Zm-3.58,0h.77L9.43,6.39V9.25h.89V5.6H8.88l-1,2.48L6.69,5.6H5.26V9.06L3.78,5.6H2.48L.92,9.25h.95l.34-.81H4l.34.81H6.14V6.39Z"/></g></svg>