<svg id="Ebene_1" data-name="Ebene 1" xmlns="http://www.w3.org/2000/svg" viewBox="0 0 14 14"><defs><style>.cls-1{fill:#bababa;}</style></defs><title>Globe</title><path class="cls-1" d="M12.24,11.64a7,7,0,0,0-.14-9.43h0A7,7,0,0,0,7.24,0H6.76A7,7,0,0,0,1.9,2.21h0a7,7,0,0,0-.14,9.43h0a7,7,0,0,0,5,2.33h.48a7,7,0,0,0,5-2.34h0ZM.49,7.24h2.9A8.92,8.92,0,0,0,4,10.19a8.9,8.9,0,0,0-2,1A6.49,6.49,0,0,1,.49,7.24ZM2.14,2.66A8.88,8.88,0,0,0,4,3.6a8.91,8.91,0,0,0-.66,3.16H.49A6.49,6.49,0,0,1,2.14,2.66Zm11.37,4.1h-2.9A8.91,8.91,0,0,0,10,3.6a8.88,8.88,0,0,0,1.91-.94A6.49,6.49,0,0,1,13.51,6.76ZM6.76,3.61a8.44,8.44,0,0,1-2-.31,8.45,8.45,0,0,1,2-2.66Zm0,.48V6.76H3.87a8.43,8.43,0,0,1,.64-3A8.92,8.92,0,0,0,6.76,4.09Zm.48,0a8.91,8.91,0,0,0,2.25-.35,8.43,8.43,0,0,1,.64,3H7.24Zm0-.48v-3a8.45,8.45,0,0,1,2,2.66A8.44,8.44,0,0,1,7.24,3.61Zm2.51-.46A8.91,8.91,0,0,0,7.85.54a6.5,6.5,0,0,1,3.66,1.77A8.4,8.4,0,0,1,9.75,3.16Zm-5.51,0a8.39,8.39,0,0,1-1.76-.85A6.5,6.5,0,0,1,6.15.54,8.91,8.91,0,0,0,4.25,3.16ZM3.87,7.24H6.76V9.66A8.9,8.9,0,0,0,4.43,10,8.43,8.43,0,0,1,3.87,7.24Zm2.89,2.91v3.21a8.44,8.44,0,0,1-2.14-2.88A8.42,8.42,0,0,1,6.76,10.15Zm.48,3.21V10.15a8.42,8.42,0,0,1,2.14.34A8.44,8.44,0,0,1,7.24,13.36Zm0-3.7V7.24h2.89A8.43,8.43,0,0,1,9.57,10,8.89,8.89,0,0,0,7.24,9.66Zm3.37-2.42h2.9A6.49,6.49,0,0,1,12,11.19a8.9,8.9,0,0,0-2-1A8.91,8.91,0,0,0,10.61,7.24ZM2.34,11.55a8.41,8.41,0,0,1,1.81-.91,8.91,8.91,0,0,0,2,2.82A6.5,6.5,0,0,1,2.34,11.55Zm5.51,1.91a8.9,8.9,0,0,0,2-2.82,8.42,8.42,0,0,1,1.81.91A6.5,6.5,0,0,1,7.85,13.46Z"/></svg>