<svg id="Layer_1" data-name="Layer 1" xmlns="http://www.w3.org/2000/svg" xmlns:xlink="http://www.w3.org/1999/xlink" viewBox="0 0 34 22"><defs><style>.cls-1{fill:url(#linear-gradient);}.cls-2{fill:#009ddd;}.cls-3{fill:#ed1c2e;}.cls-4{fill:#fff;}</style><linearGradient id="linear-gradient" x1="17" y1="22" x2="17" gradientUnits="userSpaceOnUse"><stop offset="0" stop-color="lime"/><stop offset="0" stop-color="#1c276a"/><stop offset="1" stop-color="#1f548b"/></linearGradient></defs><title>Artboard 1</title><rect class="cls-1" width="34" height="22"/><path class="cls-2" d="M17.21,16.65a7.9,7.9,0,1,0-5.3,2,7.87,7.87,0,0,0,5.3-2Z"/><path class="cls-2" d="M17.21,16.65a7.9,7.9,0,0,0,0-11.72V16.65Z"/><path class="cls-3" d="M22.52,2.89a7.9,7.9,0,0,0-5.31,2,10.15,10.15,0,0,0-.79.84H18a10.15,10.15,0,0,1,.6.84h-2.8q-.25.42-.46.84h3.72c.12.28.25.56.34.84H15a7.57,7.57,0,0,0-.23.85h4.85a8.42,8.42,0,0,1,.17,1.67,8,8,0,0,1-.4,2.51H15q.14.42.32.84h3.72a8.59,8.59,0,0,1-.45.84h-2.8a8.4,8.4,0,0,0,.6.84H18a8.14,8.14,0,0,1-.8.84A7.9,7.9,0,1,0,22.52,2.89Z"/><path class="cls-4" d="M27.69,12.5a.26.26,0,0,1,.26-.25.24.24,0,0,1,.25.25.26.26,0,0,1-.25.26.27.27,0,0,1-.26-.26Zm.26.2a.19.19,0,0,0,.19-.2.18.18,0,0,0-.19-.19.19.19,0,0,0-.2.19.2.2,0,0,0,.2.2Zm0-.09h-.06v-.22H28s0,0,.06,0,0,0,0,0,0,.06,0,.06l0,.09H28l0-.08h0v.08Zm0-.12H28v0h-.06v0Z"/><polygon class="cls-4" points="10.92 12.77 9.93 12.77 10.52 9.69 9.17 12.77 8.27 12.77 8.12 9.7 7.53 12.77 6.63 12.77 7.39 8.76 8.94 8.76 9.02 11.23 10.1 8.76 11.7 8.76 10.92 12.77"/><path class="cls-4" d="M21.92,12.72a2.51,2.51,0,0,1-.71.11c-.49,0-.77-.25-.77-.71a2.19,2.19,0,0,1,0-.29l.06-.33,0-.25L21,8.76h1l-.14.74h.51l-.14.79h-.51l-.25,1.36a.75.75,0,0,0,0,.14c0,.17.11.25.34.25A1.12,1.12,0,0,0,22,12l-.12.71Z"/><path class="cls-4" d="M24.78,9.53l-.11,0s-.08,0-.08,0h-.11a1,1,0,0,0-.85.53l.09-.5h-.9l-.6,3.27h1c.36-2,.5-2.35,1-2.35l.12,0,.11,0,.36-.93Z"/><path class="cls-4" d="M18,10.54c0,.4.23.7.76.9s.46.22.46.37-.19.29-.57.29a3.19,3.19,0,0,1-.9-.14l-.12.76h0l.17,0,.26,0a4.05,4.05,0,0,0,.56,0c1,0,1.53-.34,1.53-1.08,0-.45-.2-.71-.71-.91s-.46-.2-.46-.36.17-.26.5-.26a6.49,6.49,0,0,1,.71,0l.14-.74a5.94,5.94,0,0,0-.87-.06c-1.11,0-1.5.49-1.5,1.1Z"/><path class="cls-4" d="M14.11,12.77h-.81l0-.34a1.34,1.34,0,0,1-1,.39.85.85,0,0,1-.9-.88c0-.79.63-1.25,1.73-1.25l.4,0a.62.62,0,0,0,0-.2c0-.22-.17-.29-.64-.29a4.16,4.16,0,0,0-.8.08l-.14,0-.09,0L12,9.61a4.46,4.46,0,0,1,1.18-.17c.85,0,1.28.32,1.28.94a3.46,3.46,0,0,1-.08.65l-.2,1.16,0,.2,0,.17,0,.11,0,.09Zm-.71-1.46-.22,0c-.56,0-.84.17-.84.5a.32.32,0,0,0,.34.34.76.76,0,0,0,.71-.82Z"/><path class="cls-4" d="M17.35,12.69a3.75,3.75,0,0,1-1,.14c-1.1,0-1.67-.51-1.67-1.47a1.78,1.78,0,0,1,1.72-1.94A1.17,1.17,0,0,1,17.7,10.6a3.33,3.33,0,0,1-.11.81h-2v.11c0,.37.28.57.85.57a2.62,2.62,0,0,0,1-.2l-.15.8Zm-.53-1.93v-.17c0-.26-.17-.42-.46-.42s-.53.22-.62.59Z"/><path class="cls-4" d="M27.84,11.28a1.74,1.74,0,0,1-1.92,1.56,1.39,1.39,0,0,1-1.55-1.5,1.83,1.83,0,0,1,1.93-1.94,1.42,1.42,0,0,1,1.56,1.47,1.67,1.67,0,0,1,0,.4Zm-1-.42c0-.34-.14-.65-.54-.65s-.81.59-.81,1.11.22.73.56.73a1,1,0,0,0,.76-.79,1.71,1.71,0,0,0,0-.4Z"/></svg>