<svg id="Layer_1" data-name="Layer 1" xmlns="http://www.w3.org/2000/svg" xmlns:xlink="http://www.w3.org/1999/xlink" viewBox="0 0 34 22"><defs><style>.cls-1{fill:url(#linear-gradient);}.cls-2{fill:#ffb600;}.cls-3{fill:#f7981d;}.cls-4{fill:#ff8500;}.cls-5{fill:#ff5050;}.cls-6{fill:#e52836;}.cls-7{fill:#cb2026;}.cls-8{fill:#fff;}.cls-9{fill:#dce5e5;}</style><linearGradient id="linear-gradient" x1="17" y1="22" x2="17" gradientUnits="userSpaceOnUse"><stop offset="0" stop-color="lime"/><stop offset="0" stop-color="#1c276a"/><stop offset="1" stop-color="#1f548b"/></linearGradient></defs><title>Artboard 1</title><rect class="cls-1" width="34" height="22"/><path class="cls-2" d="M30,10.4a7.8,7.8,0,1,1-15.6,0h0a7.8,7.8,0,1,1,15.6,0Z"/><path class="cls-3" d="M22.2,2.6A7.82,7.82,0,0,1,30,10.4h0a7.8,7.8,0,1,1-15.6,0"/><path class="cls-4" d="M22.2,2.6A7.82,7.82,0,0,1,30,10.4h0a7.79,7.79,0,0,1-7.8,7.8"/><path class="cls-5" d="M11.72,2.6a7.8,7.8,0,0,0,.08,15.6,7.89,7.89,0,0,0,5.24-2h0a7.42,7.42,0,0,0,.78-.83H16.22a9.52,9.52,0,0,1-.58-.78H18.4a5.29,5.29,0,0,0,.45-.83H15.18a4.92,4.92,0,0,1-.33-.83h4.29a8.19,8.19,0,0,0,.41-2.48,10.65,10.65,0,0,0-.17-1.65H14.61A6,6,0,0,1,14.81,8H19.1a4.92,4.92,0,0,0-.33-.83H15.14a8.18,8.18,0,0,1,.45-.83h2.77a3.92,3.92,0,0,0-.62-.83H16.22A7,7,0,0,1,17,4.7a7.62,7.62,0,0,0-5.24-2C11.76,2.6,11.76,2.6,11.72,2.6Z"/><path class="cls-6" d="M4,10.4a7.79,7.79,0,0,0,7.8,7.8,7.89,7.89,0,0,0,5.24-2h0a7.42,7.42,0,0,0,.78-.83H16.22a9.52,9.52,0,0,1-.58-.78H18.4a5.29,5.29,0,0,0,.45-.83H15.18a4.92,4.92,0,0,1-.33-.83h4.29a8.19,8.19,0,0,0,.41-2.48,10.65,10.65,0,0,0-.17-1.65H14.61A6,6,0,0,1,14.81,8H19.1a4.92,4.92,0,0,0-.33-.83H15.14a8.18,8.18,0,0,1,.45-.83h2.77a3.92,3.92,0,0,0-.62-.83H16.22A7,7,0,0,1,17,4.7a7.62,7.62,0,0,0-5.24-2h0"/><path class="cls-7" d="M11.8,18.2a7.89,7.89,0,0,0,5.24-2h0a7.42,7.42,0,0,0,.78-.83H16.22a9.52,9.52,0,0,1-.58-.78H18.4a5.29,5.29,0,0,0,.45-.83H15.18a4.92,4.92,0,0,1-.33-.83h4.29a8.19,8.19,0,0,0,.41-2.48,10.65,10.65,0,0,0-.17-1.65H14.61A6,6,0,0,1,14.81,8H19.1a4.92,4.92,0,0,0-.33-.83H15.14a8.18,8.18,0,0,1,.45-.83h2.77a3.92,3.92,0,0,0-.62-.83H16.22A7,7,0,0,1,17,4.7a7.62,7.62,0,0,0-5.24-2h0"/><path class="cls-8" d="M14.57,12.38l.12-.7a1.79,1.79,0,0,1-.21,0c-.29,0-.33-.17-.29-.25L14.44,10h.45L15,9.24h-.41l.08-.5h-.83s-.5,2.72-.5,3.05a.62.62,0,0,0,.66.7A1.27,1.27,0,0,0,14.57,12.38Z"/><path class="cls-8" d="M14.85,11.06A1.31,1.31,0,0,0,16.3,12.5a2.14,2.14,0,0,0,.87-.12l.17-.78a2.47,2.47,0,0,1-.87.21c-.91,0-.74-.66-.74-.66h1.69a5.35,5.35,0,0,0,.12-.74,1.12,1.12,0,0,0-1.2-1.2C15.47,9.12,14.85,10,14.85,11.06Zm1.44-1.2c.45,0,.37.54.37.58h-.91S15.84,9.86,16.3,9.86Z"/><path class="cls-8" d="M21.54,12.38l.17-.91a2,2,0,0,1-.7.21c-.58,0-.83-.45-.83-.95,0-1,.5-1.53,1.07-1.53a1.38,1.38,0,0,1,.74.25l.12-.87a2.9,2.9,0,0,0-.95-.21c-.95,0-1.9.83-1.9,2.39,0,1,.5,1.73,1.49,1.73A3.7,3.7,0,0,0,21.54,12.38Z"/><path class="cls-8" d="M10,9.12a2.92,2.92,0,0,0-1,.17l-.12.7a2.44,2.44,0,0,1,.91-.17c.29,0,.54,0,.54.29s0,.21,0,.21H9.94c-.7,0-1.49.29-1.49,1.24,0,.74.5.91.78.91a1.24,1.24,0,0,0,.87-.37l0,.33h.74l.33-2.27A1,1,0,0,0,10,9.12ZM10.19,11c0,.12-.08.78-.58.78a.32.32,0,0,1-.33-.33c0-.21.12-.5.74-.5A.65.65,0,0,0,10.19,11Z"/><path class="cls-8" d="M11.92,12.46a1.06,1.06,0,0,0,1.24-1.07c0-1-1-.83-1-1.24,0-.21.17-.29.45-.29l.58,0,.12-.74a3.13,3.13,0,0,0-.78-.08c-.62,0-1.24.25-1.24,1.07s1,.87,1,1.24-.29.29-.5.29a2.7,2.7,0,0,1-.74-.12L11,12.3C11,12.38,11.22,12.46,11.92,12.46Z"/><path class="cls-8" d="M28.39,8.46l-.17,1.11a1.14,1.14,0,0,0-.78-.41c-.74,0-1.4.91-1.4,2,0,.66.33,1.36,1,1.36a1.1,1.1,0,0,0,.78-.33l0,.29h.83l.62-4ZM28,10.65c0,.45-.21,1-.66,1-.29,0-.45-.25-.45-.66,0-.66.29-1.07.66-1.07S28,10.15,28,10.65Z"/><path class="cls-8" d="M5.53,12.42l.5-3,.08,3h.58l1.07-3-.45,3h.87l.66-4H7.47L6.64,10.9l0-2.43H5.4l-.66,4Z"/><path class="cls-8" d="M18.32,12.42c.25-1.36.29-2.48.87-2.27a3.24,3.24,0,0,1,.29-.95h-.17c-.37,0-.66.5-.66.5l.08-.45h-.78l-.54,3.22h.91Z"/><path class="cls-8" d="M23.44,9.12a2.92,2.92,0,0,0-1,.17l-.12.7a2.44,2.44,0,0,1,.91-.17c.29,0,.54,0,.54.29s0,.21,0,.21h-.37c-.7,0-1.49.29-1.49,1.24,0,.74.5.91.78.91a1.24,1.24,0,0,0,.87-.37l0,.33h.74l.33-2.27A1,1,0,0,0,23.44,9.12ZM23.64,11c0,.12-.08.78-.58.78a.32.32,0,0,1-.33-.33c0-.21.12-.5.74-.5C23.6,11,23.6,11,23.64,11Z"/><path class="cls-8" d="M25.25,12.42c.25-1.36.29-2.48.87-2.27a3.24,3.24,0,0,1,.29-.95h-.17c-.37,0-.66.5-.66.5l.08-.45h-.78l-.54,3.22h.91Z"/><path class="cls-9" d="M13.29,11.8a.62.62,0,0,0,.66.7,1.57,1.57,0,0,0,.62-.12l.12-.7a1.79,1.79,0,0,1-.21,0c-.29,0-.33-.17-.29-.25L14.44,10h.45L15,9.24h-.41l.08-.5"/><path class="cls-9" d="M15.27,11.06c0,1.16.37,1.44,1,1.44a2.14,2.14,0,0,0,.87-.12l.17-.78a2.47,2.47,0,0,1-.87.21c-.91,0-.74-.66-.74-.66h1.69a5.35,5.35,0,0,0,.12-.74,1.12,1.12,0,0,0-1.2-1.2C15.47,9.12,15.27,10,15.27,11.06Zm1-1.2c.45,0,.54.54.54.58H15.76S15.84,9.86,16.3,9.86Z"/><path class="cls-9" d="M21.54,12.38l.17-.91a2,2,0,0,1-.7.21c-.58,0-.83-.45-.83-.95,0-1,.5-1.53,1.07-1.53a1.38,1.38,0,0,1,.74.25l.12-.87a2.9,2.9,0,0,0-.95-.21c-.95,0-1.49.83-1.49,2.39,0,1,.08,1.73,1.07,1.73A3.7,3.7,0,0,0,21.54,12.38Z"/><path class="cls-9" d="M8.91,10a2.44,2.44,0,0,1,.91-.17c.29,0,.54,0,.54.29s0,.21,0,.21H9.94c-.7,0-1.49.29-1.49,1.24,0,.74.5.91.78.91a1.24,1.24,0,0,0,.87-.37l0,.33h.74l.33-2.27c0-.95-.83-1-1.16-1M10.6,11a1.35,1.35,0,0,1-1,.78.32.32,0,0,1-.33-.33c0-.21.12-.5.74-.5A3.37,3.37,0,0,0,10.6,11Z"/><path class="cls-9" d="M11,12.38a3.49,3.49,0,0,0,.95.08,1.06,1.06,0,0,0,1.24-1.07c0-1-1-.83-1-1.24,0-.21.17-.29.45-.29l.58,0,.12-.74a3.13,3.13,0,0,0-.78-.08c-.62,0-.83.25-.83,1.07s.62.87.62,1.24-.29.29-.5.29"/><path class="cls-9" d="M28.23,9.57a1.14,1.14,0,0,0-.78-.41c-.74,0-1,.91-1,2,0,.66-.08,1.36.62,1.36a1.1,1.1,0,0,0,.78-.33l0,.29h.83l.62-4m-1.07,2.15c0,.45-.37,1-.83,1-.29,0-.45-.25-.45-.66,0-.66.29-1.07.66-1.07A.63.63,0,0,1,28.18,10.65Z"/><path class="cls-9" d="M5.53,12.42l.5-3,.08,3h.58l1.07-3-.45,3h.87l.66-4h-1L6.64,10.9l0-2.43H6.15l-1.4,4Z"/><path class="cls-9" d="M17.45,12.42h.87c.25-1.36.29-2.48.87-2.27a3.24,3.24,0,0,1,.29-.95h-.17c-.37,0-.66.5-.66.5l.08-.45"/><path class="cls-9" d="M22.32,10a2.44,2.44,0,0,1,.91-.17c.29,0,.54,0,.54.29s0,.21,0,.21h-.37c-.7,0-1.49.29-1.49,1.24,0,.74.5.91.78.91a1.24,1.24,0,0,0,.87-.37l0,.33h.74l.33-2.27c0-.95-.83-1-1.16-1M24,11a1.35,1.35,0,0,1-1,.78.32.32,0,0,1-.33-.33c0-.21.12-.5.74-.5A3.63,3.63,0,0,0,24,11Z"/><path class="cls-9" d="M24.39,12.42h.87c.25-1.36.29-2.48.87-2.27a3.24,3.24,0,0,1,.29-.95h-.17c-.37,0-.66.5-.66.5l.08-.45"/></svg>