<svg id="Layer_1" data-name="Layer 1" xmlns="http://www.w3.org/2000/svg" viewBox="0 0 34 22"><defs><style>.cls-1{fill:#002987;}.cls-2{fill:#0085cc;}.cls-3{fill:#00186a;}.cls-4{fill:#32a6ce;}.cls-5{fill:#1a80ad;}.cls-6{fill:#21789e;}.cls-7{fill:#1a5b80;}.cls-8{fill:#06435e;}.cls-9{fill:#2273aa;}</style></defs><title>Artboard 1</title><rect width="100%" height="100%" fill="#fff"/><path class="cls-1" d="M19.25,5.84a2.39,2.39,0,0,0,0-.29A1.5,1.5,0,0,0,17.76,4H15.25a.32.32,0,0,0-.32.27L14,9.82a.32.32,0,0,0,.32.38h.92a.33.33,0,0,0,.32-.27v0h0l-.13.76a.29.29,0,0,0,.28.33h.8a.29.29,0,0,0,.28-.24L17,9.4A.49.49,0,0,1,17.52,9h.21a2.08,2.08,0,0,0,2.08-2.08A1.32,1.32,0,0,0,19.25,5.84Z"/><path class="cls-2" d="M19.25,5.84A2.37,2.37,0,0,1,16.9,7.92h-.7a.35.35,0,0,0-.34.25l-.42,2.49a.29.29,0,0,0,.28.33h.8a.29.29,0,0,0,.28-.24L17,9.4A.49.49,0,0,1,17.52,9h.21a2.08,2.08,0,0,0,2.08-2.08h0A1.32,1.32,0,0,0,19.25,5.84Z"/><path class="cls-3" d="M16.2,7.92h.7a2.37,2.37,0,0,0,2.35-2.08,1.31,1.31,0,0,0-.76-.24H16.66a.43.43,0,0,0-.42.36l-.37,2.22A.35.35,0,0,1,16.2,7.92Z"/><path class="cls-4" d="M23.76,13.13a6.32,6.32,0,0,0-1.39.23l-.11.87A4.93,4.93,0,0,1,23.42,14c.45,0,.72.08.64.49-1.36,0-2.26.26-2.45,1.17-.26,1.51,1.39,1.54,2,.87l-.08.41h1.2l.53-2.45C25.49,13.43,24.58,13.09,23.76,13.13Zm.08,2.52c-.08.3-.34.41-.64.45s-.49-.15-.34-.45.49-.23.75-.23h.3S23.83,15.54,23.83,15.65Z"/><path class="cls-5" d="M22.25,14.22A4.93,4.93,0,0,1,23.42,14c.45,0,.72.08.64.49-1.36,0-2.26.26-2.45,1.17-.26,1.51,1.39,1.54,2,.87l-.08.41h1.2l.53-2.45c.23-1-.72-1.28-1.54-1.28m.08,2.48c-.08.3-.34.41-.64.45s-.49-.15-.34-.45.49-.23.75-.23h.3S23.83,15.54,23.83,15.65Z"/><polygon class="cls-4" points="26.32 12 25.34 16.89 26.54 16.89 27.56 12 26.32 12"/><polygon class="cls-5" points="27.18 12 25.34 16.89 26.54 16.89 27.56 12 26.32 12 26.32 12 27.18 12"/><path class="cls-4" d="M20.71,12H18.48l-1,4.89h1.32l.34-1.51h.94a1.79,1.79,0,0,0,1.84-1.47A1.57,1.57,0,0,0,20.71,12Zm0,1.69a.77.77,0,0,1-.75.56h-.6l.26-1.13h.64A.43.43,0,0,1,20.67,13.69Z"/><path class="cls-5" d="M20.71,12H19.2l-1.73,4.89h1.32l.34-1.51h.94a1.79,1.79,0,0,0,1.84-1.47A1.53,1.53,0,0,0,20.71,12Zm0,1.69a.77.77,0,0,1-.75.56h-.6l.26-1.13h.64A.43.43,0,0,1,20.67,13.69Z"/><path class="cls-6" d="M12,13.13a5.6,5.6,0,0,0-1.36.23l-.11.87A4.5,4.5,0,0,1,11.71,14c.45,0,.72.08.64.49-1.32,0-2.22.26-2.41,1.17-.26,1.51,1.36,1.54,2,.87l-.08.41h1.2l.53-2.45C13.78,13.43,12.84,13.09,12,13.13Zm.11,2.52c-.08.3-.34.41-.64.45s-.49-.15-.3-.45.49-.23.72-.23h.3S12.12,15.54,12.12,15.65Z"/><path class="cls-7" d="M10.58,14.22A4.5,4.5,0,0,1,11.75,14c.45,0,.72.08.64.49-1.32,0-2.22.26-2.41,1.17-.26,1.51,1.36,1.54,2,.87l-.11.41h1.2l.53-2.45c.23-1-.72-1.28-1.54-1.28m.08,2.48c-.08.3-.34.41-.64.45s-.49-.15-.3-.45.49-.23.72-.23h.3S12.12,15.54,12.12,15.65Z"/><polygon class="cls-6" points="14.08 13.13 15.29 13.13 15.47 15.24 16.68 13.13 17.92 13.13 15.06 18.4 13.7 18.4 14.57 16.82 14.08 13.13"/><polyline class="cls-7" points="15.29 13.21 15.47 15.28 16.68 13.13 17.92 13.13 15.06 18.4 13.7 18.4 14.57 16.86"/><path class="cls-6" d="M9,12H6.78l-1,4.89H7.12l.34-1.51H8.4a1.79,1.79,0,0,0,1.84-1.47A1.53,1.53,0,0,0,9,12Zm0,1.69a.77.77,0,0,1-.75.56h-.6l.26-1.13h.64A.43.43,0,0,1,9,13.69Z"/><path class="cls-7" d="M9,12H8L5.8,16.89H7.12l.34-1.51H8.4a1.79,1.79,0,0,0,1.84-1.47A1.53,1.53,0,0,0,9,12Zm0,1.69a.77.77,0,0,1-.75.56h-.6l.26-1.13h.64A.43.43,0,0,1,9,13.69Z"/><path class="cls-8" d="M11.78,14.45c-1,.08-1.69.38-1.84,1.13-.26,1.51,1.36,1.54,2,.87l-.08.45h1.2l.19-.9Zm.34,1.2c-.08.3-.34.41-.64.45s-.49-.15-.3-.45.49-.23.72-.23h.3S12.12,15.54,12.12,15.65Z"/><polygon class="cls-8" points="15.55 15.2 15.47 15.31 16.26 16.07 17.92 13.13 16.68 13.13 15.55 15.2"/><polygon class="cls-8" points="7.12 16.89 7.45 15.39 5.91 16.89 7.12 16.89"/><polygon class="cls-9" points="18.79 16.89 19.13 15.31 19.13 15.35 17.58 16.89 18.79 16.89"/><path class="cls-9" d="M23.49,14.45c-1,.08-1.69.38-1.84,1.13-.26,1.51,1.39,1.54,2,.87l-.11.45h1.2L25,16Zm.34,1.2c-.08.3-.34.41-.64.45s-.49-.15-.34-.45.49-.23.75-.23h.3S23.83,15.54,23.83,15.65Z"/><polygon class="cls-9" points="26.2 14.67 25.34 16.89 26.54 16.89 26.88 15.39 26.2 14.67"/><path class="cls-4" d="M27.82,12.79v-.53h-.19v-.08h.49v.08h-.19v.53Z"/><path class="cls-4" d="M28.2,12.79v-.6h.11l.15.41a.13.13,0,0,0,0,.08s0,0,0-.11l.15-.41h.11v.6h-.08v-.53l-.19.53h-.11l-.19-.53v.53h0Z"/></svg>