<svg id="Ebene_1" data-name="Ebene 1" xmlns="http://www.w3.org/2000/svg" viewBox="0 0 14.14 15"><defs><style>.cls-1{fill:#010101;}</style></defs><title>Share</title><path class="cls-1" d="M12.32,9.64a2.68,2.68,0,0,0-2.12,1L6.07,8.38a2.69,2.69,0,0,0,.15-.88,2.63,2.63,0,0,0-.15-.89l4.12-2.3a2.68,2.68,0,1,0-.55-1.63,2.62,2.62,0,0,0,.15.89L5.67,5.87a2.68,2.68,0,1,0,0,3.25l4.12,2.3a2.68,2.68,0,1,0,2.52-1.79Zm0-8.79a1.84,1.84,0,1,1-1.84,1.84A1.84,1.84,0,0,1,12.32.84ZM3.54,9.34A1.84,1.84,0,1,1,5.39,7.5,1.84,1.84,0,0,1,3.54,9.34Zm8.77,4.82a1.84,1.84,0,1,1,1.84-1.84A1.84,1.84,0,0,1,12.32,14.16Z" transform="translate(-0.86)"/></svg>