<svg id="Layer_1" data-name="Layer 1" xmlns="http://www.w3.org/2000/svg" xmlns:xlink="http://www.w3.org/1999/xlink" viewBox="0 0 34 22"><defs><style>.cls-1{fill:url(#linear-gradient);}.cls-2{fill:#e7a83a;}.cls-3{fill:#fff;}</style><linearGradient id="linear-gradient" x1="17" x2="17" y2="22" gradientUnits="userSpaceOnUse"><stop offset="0" stop-color="#145290"/><stop offset="1" stop-color="#0d70a6"/></linearGradient></defs><title>Artboard 1</title><rect class="cls-1" width="34" height="22"/><path class="cls-2" d="M11.74,12.46A16.77,16.77,0,0,1,22.19,11.4l0-1.16a18.3,18.3,0,0,0-10.5,2.09Z"/><path class="cls-3" d="M7.31,13.31H9.63V14H8.19v.64H9.61v.67H8.18V16H9.6v.7H7.32V13.31ZM10.21,13H11v3.63h-.84V13Zm3.73,3.36a1.78,1.78,0,0,1-1.11.36,1.2,1.2,0,0,1-1.29-1.25,1.32,1.32,0,0,1,1.31-1.36c.93,0,1.22.66,1.22,1.5H12.39a.52.52,0,0,0,.58.51,1.08,1.08,0,0,0,.69-.24l.28.49Zm-.62-1.25c0-.25-.12-.48-.4-.48a.58.58,0,0,0-.52.48Zm3.31,1.36a1.91,1.91,0,0,1-.89.25A1.2,1.2,0,0,1,14.4,15.5a1.29,1.29,0,0,1,1.38-1.37,1.72,1.72,0,0,1,.83.21l-.27.55a1,1,0,0,0-.4-.1.64.64,0,0,0-.7.65.62.62,0,0,0,.63.62,1.06,1.06,0,0,0,.45-.14l.3.56Zm.31-2.28h.38v-.83h.81l0,.83h.69v.61h-.69c0,.34,0,.7,0,.91s.05.31.24.31a.61.61,0,0,0,.31-.12l.18.57a1.64,1.64,0,0,1-.83.24c-.68,0-.72-.43-.72-1,0-.3,0-.6,0-.92h-.36l0-.61Zm2.29,0h.84v.34h0a.7.7,0,0,1,.62-.41,1.3,1.3,0,0,1,.28,0l-.11.83a1,1,0,0,0-.3,0,.6.6,0,0,0-.5.29v1.41h-.84l0-2.44Zm3.27-.09a1.31,1.31,0,1,1,0,2.61,1.31,1.31,0,1,1,0-2.61Zm0,2c.4,0,.52-.35.52-.67s-.12-.67-.52-.67-.52.35-.52.67S22.1,16.1,22.5,16.1Zm1.82-1.89h.84v.27a1.19,1.19,0,0,1,.79-.35c.52,0,.8.29.8,1,0,.5,0,1,0,1.57h-.84c0-.47,0-.94,0-1.45,0-.2-.05-.35-.3-.35a.78.78,0,0,0-.44.22v1.58H24.3l0-2.44Zm-10.09-5L15.3,5.68h.95L15.18,9.19Zm-.42-3.51L13,7.17a3.61,3.61,0,0,0-.41.83h0c0-.31,0-.7,0-.91l-.09-1.41h-1.6l0,.09a.66.66,0,0,1,.72.63l.31,2.79h1l2-3.51Zm7.37,3.51,0-.52H20l-.24.52h-1l1.87-3.5h1.26l.32,3.5h-1Zm-.11-2.07a8,8,0,0,1,0-.82h0c-.06.17-.31.7-.41,1L20.29,8h.83l0-.9ZM17.24,9.29a2.65,2.65,0,0,1-1.43-.4l.45-.69a1.75,1.75,0,0,0,1,.34.44.44,0,0,0,.42-.2c.13-.23,0-.35-.4-.56l-.18-.12c-.55-.38-.79-.73-.53-1.36a1.31,1.31,0,0,1,1.32-.7A2.12,2.12,0,0,1,19.14,6l-.52.61a1.15,1.15,0,0,0-.73-.32.44.44,0,0,0-.4.18c-.1.2,0,.33.32.51l.22.14c.67.42.83.86.66,1.28a1.37,1.37,0,0,1-1.44.87Z"/></svg>