<svg id="Layer_1" data-name="Layer 1" xmlns="http://www.w3.org/2000/svg" viewBox="0 0 34 22"><defs><style>.cls-1{fill:#3c58bf;}.cls-2{fill:#293688;}.cls-3{fill:#ffbc00;}.cls-4{fill:#f7981d;}.cls-5{fill:#ed7c00;}.cls-6{fill:#051244;}</style></defs><title>Artboard 1</title><rect width="100%" height="100%" fill="#fff" /><polygon class="cls-1" points="13.45 15.18 14.86 7.26 17.06 7.26 15.7 15.18 13.45 15.18"/><polygon class="cls-2" points="13.45 15.18 15.26 7.26 17.06 7.26 15.7 15.18 13.45 15.18"/><path class="cls-1" d="M23.66,7.35a5.58,5.58,0,0,0-2-.35c-2.2,0-3.78,1.1-3.78,2.68,0,1.19,1.1,1.8,2,2.2s1.14.66,1.14,1c0,.53-.7.79-1.32.79a4.78,4.78,0,0,1-2.11-.44l-.31-.13-.31,1.8a7.13,7.13,0,0,0,2.51.44c2.33,0,3.87-1.1,3.87-2.77,0-.92-.57-1.63-1.89-2.2-.79-.4-1.28-.62-1.28-1s.4-.7,1.28-.7A4,4,0,0,1,23.08,9l.22.09.35-1.72Z"/><path class="cls-2" d="M23.66,7.35a5.58,5.58,0,0,0-2-.35c-2.2,0-3.39,1.1-3.39,2.68a2.3,2.3,0,0,0,1.58,2.2c.88.4,1.14.66,1.14,1,0,.53-.7.79-1.32.79a4.78,4.78,0,0,1-2.11-.44l-.31-.13-.31,1.8a7.13,7.13,0,0,0,2.51.44c2.33,0,3.87-1.1,3.87-2.77,0-.92-.57-1.63-1.89-2.2-.79-.4-1.28-.62-1.28-1s.4-.7,1.28-.7A4,4,0,0,1,23.08,9l.22.09.35-1.72Z"/><path class="cls-1" d="M27.44,7.26c-.53,0-.92,0-1.14.57L23,15.18h2.37l.44-1.32h2.81l.26,1.32H31L29.15,7.26Zm-1,5.28c.13-.4.88-2.33.88-2.33s.18-.48.31-.79l.13.75s.44,2,.53,2.42H26.43Z"/><path class="cls-2" d="M28,7.26c-.53,0-.92,0-1.14.57L23,15.18h2.37l.44-1.32h2.81l.26,1.32H31L29.15,7.26Zm-1.54,5.28c.18-.44.88-2.33.88-2.33s.18-.48.31-.79l.13.75s.44,2,.53,2.42H26.43Z"/><path class="cls-1" d="M9.41,12.81l-.22-1.14A6.38,6.38,0,0,0,6.11,8.19l2,7h2.37L14,7.31H11.65Z"/><path class="cls-2" d="M9.41,12.81l-.22-1.14A6.38,6.38,0,0,0,6.11,8.19l2,7h2.37L14,7.31H12.09Z"/><path class="cls-3" d="M3.29,7.26l.4.09a7.42,7.42,0,0,1,5.5,4.31L8.39,7.92c-.13-.53-.53-.66-1-.66Z"/><path class="cls-4" d="M3.29,7.26h0c2.81.66,5.15,2.37,5.89,4.35L8.44,8.5a1.07,1.07,0,0,0-1.06-.84Z"/><path class="cls-5" d="M3.29,7.26h0c2.81.66,5.15,2.37,5.89,4.35L8.66,9.9a1.55,1.55,0,0,0-.92-1.28Z"/><path class="cls-6" d="M11.61,12.54,10.11,11l-.7,1.67-.18-1.1A6.38,6.38,0,0,0,6.15,8.14l2,7h2.37Z"/><polygon class="cls-6" points="15.7 15.18 13.8 13.24 13.45 15.18 15.7 15.18"/><path class="cls-6" d="M20.75,12.45h0c.18.18.26.31.22.48,0,.53-.7.79-1.32.79a4.78,4.78,0,0,1-2.11-.44l-.31-.13L16.93,15a7.13,7.13,0,0,0,2.51.44,4.35,4.35,0,0,0,3.21-1.1Z"/><path class="cls-6" d="M23.3,15.18h2.07l.44-1.32h2.81l.26,1.32H31L30.25,12,27.61,9.42l.13.7s.44,2,.53,2.42H26.43c.18-.44.88-2.33.88-2.33s.18-.48.31-.79"/></svg>