<?xml version="1.0" encoding="utf-8"?>
<!-- Generator: Adobe Illustrator 21.0.2, SVG Export Plug-In . SVG Version: 6.00 Build 0)  -->
<svg version="1.1" id="Layer_1" xmlns="http://www.w3.org/2000/svg" xmlns:xlink="http://www.w3.org/1999/xlink" x="0px" y="0px"
	 viewBox="0 0 169.3 169.3" style="enable-background:new 0 0 169.3 169.3;" xml:space="preserve">
<style type="text/css">
	.st0{display:none;}
	.st1{display:inline;fill:#C5C5C4;}
	.st2{fill:none;stroke:#C5C5C4;stroke-width:2;stroke-miterlimit:10;}
	.st3{display:none;fill:#C5C5C4;}
	.st4{display:inline;}
	.st5{fill:#C5C5C4;}
</style>
<g class="st0">
	<path class="st1" d="M94.4,56.8l-5.8,0c-6.5,0-10.8,5.2-10.8,13.4v6.2H72c-0.5,0-0.9,0.5-0.9,1.1v5.4c0,0.6,0.4,1.1,0.9,1.1h5.8
		v27.2c0,0.6,0.4,1.1,0.9,1.1h7.6c0.5,0,0.9-0.5,0.9-1.1V83.9h6.8c0.5,0,0.9-0.5,0.9-1.1l0-5.4c0-0.3-0.1-0.6-0.3-0.8
		c-0.2-0.2-0.4-0.3-0.6-0.3h-6.8v-5.2c0-2.5,0.5-3.8,3.2-3.8l3.9,0c0.5,0,0.9-0.5,0.9-1.1v-8.3C95.3,57.3,94.9,56.8,94.4,56.8z"/>
</g>
<circle class="st2" cx="84.6" cy="84.6" r="83.6"/>
<path class="st3" d="M113.2,64.7c-1.4,0.6-2.8,1.1-4.3,1.4c1.6-1.5,2.8-3.5,3.5-5.6l0,0c0.2-0.6-0.5-1.1-1-0.8l0,0
	c-2,1.2-4.2,2.1-6.5,2.7c-0.1,0-0.3,0.1-0.4,0.1c-0.4,0-0.8-0.2-1.1-0.4c-2.4-2.1-5.6-3.3-8.8-3.3c-1.4,0-2.8,0.2-4.2,0.7
	c-4.3,1.3-7.7,4.9-8.7,9.3c-0.4,1.7-0.5,3.3-0.3,4.9c0,0.2-0.1,0.3-0.1,0.4c-0.1,0.1-0.2,0.2-0.4,0.2c0,0,0,0,0,0
	c-9.5-0.9-18-5.4-24.1-12.9l0,0c-0.3-0.4-0.9-0.3-1.1,0.1l0,0c-1.2,2-1.8,4.3-1.8,6.7c0,3.6,1.5,7,4,9.5c-1.1-0.3-2.1-0.6-3-1.2l0,0
	c-0.5-0.3-1,0.1-1,0.6l0,0c-0.1,5.4,3.1,10.2,7.8,12.3c-0.1,0-0.2,0-0.3,0c-0.7,0-1.5-0.1-2.2-0.2l0,0c-0.5-0.1-1,0.4-0.8,0.9l0,0
	c1.5,4.8,5.6,8.3,10.6,9.1c-4.1,2.7-8.8,4.2-13.8,4.2l-1.5,0c-0.5,0-0.9,0.3-1,0.8c-0.1,0.5,0.1,0.9,0.5,1.2c5.6,3.2,11.9,5,18.4,5
	c5.7,0,11-1.1,15.7-3.3c4.4-2,8.3-4.9,11.5-8.6c3-3.4,5.4-7.4,7-11.8c1.6-4.2,2.4-8.7,2.4-12.9v-0.2c0-0.7,0.3-1.3,0.8-1.8
	c2.1-1.7,3.8-3.6,5.3-5.8l0,0C114.4,65.2,113.8,64.4,113.2,64.7L113.2,64.7z"/>
<g class="st0">
	<path class="st1" d="M84.6,53.1c-17.3,0-31.4,14-31.4,31.4c0,12.8,7.7,23.9,18.8,28.7c-0.1-2.2,0-4.8,0.5-7.2
		c0.6-2.5,4-17.1,4-17.1s-1-2-1-5c0-4.6,2.7-8.1,6.1-8.1c2.9,0,4.2,2.1,4.2,4.7c0,2.9-1.8,7.2-2.8,11.1c-0.8,3.3,1.7,6,5,6
		C94,97.7,98,90.1,98,81c0-6.9-4.6-12-13.1-12c-9.5,0-15.4,7.1-15.4,15c0,2.7,0.8,4.7,2.1,6.2c0.6,0.7,0.7,1,0.5,1.7
		c-0.2,0.6-0.5,2-0.6,2.5c-0.2,0.8-0.9,1.1-1.6,0.8c-4.4-1.8-6.4-6.6-6.4-12c0-8.9,7.5-19.6,22.4-19.6c12,0,19.9,8.7,19.9,18
		c0,12.3-6.8,21.5-16.9,21.5c-3.4,0-6.6-1.8-7.7-3.9c0,0-1.8,7.2-2.2,8.6c-0.7,2.4-2,4.8-3.2,6.7c2.8,0.8,5.8,1.3,8.9,1.3
		c17.3,0,31.4-14,31.4-31.4C116,67.1,102,53.1,84.6,53.1"/>
</g>
<g class="st0">
	<g class="st4">
		<path class="st5" d="M86,90.2l-2.3-1.8c-0.7-0.6-1.7-1.4-1.7-2.8c0-1.4,1-2.4,1.8-3.2c2.7-2.2,5.5-4.4,5.5-9.3
			c0-5-3.1-7.6-4.6-8.8h4l4.2-2.7H80c-3.5,0-8.6,0.8-12.3,3.9c-2.8,2.4-4.2,5.7-4.2,8.7c0,5.1,3.9,10.2,10.8,10.2
			c0.7,0,1.4-0.1,2.1-0.1c-0.3,0.8-0.6,1.4-0.6,2.5c0,2,1,3.3,2,4.4c-2.9,0.2-8.4,0.5-12.4,3c-3.8,2.3-5,5.6-5,8
			c0,4.8,4.6,9.3,14,9.3c11.2,0,17.1-6.2,17.1-12.3C91.4,94.8,88.8,92.6,86,90.2z M77.4,82.7c-5.6,0-8.1-7.2-8.1-11.6
			c0-1.7,0.3-3.5,1.4-4.8c1-1.3,2.9-2.2,4.6-2.2c5.4,0,8.2,7.3,8.2,12c0,1.2-0.1,3.3-1.6,4.8C80.8,81.9,79.1,82.7,77.4,82.7z
			 M77.5,108.9c-7,0-11.5-3.3-11.5-8c0-4.6,4.2-6.2,5.6-6.7c2.7-0.9,6.3-1,6.8-1c0.7,0,1,0,1.5,0.1c5,3.5,7.1,5.3,7.1,8.6
			C87.1,105.9,83.7,108.9,77.5,108.9z"/>
		<polygon class="st5" points="102.4,82.6 102.4,76 99.2,76 99.2,82.6 92.7,82.6 92.7,85.8 99.2,85.8 99.2,92.4 102.4,92.4 
			102.4,85.8 109,85.8 109,82.6 		"/>
	</g>
</g>
<path class="st5" d="M105.8,58.9H63.4c-8.3,0-15.1,6.7-15.1,15.1v21.2c0,8.3,6.7,15.1,15.1,15.1h42.4c8.3,0,15.1-6.7,15.1-15.1V74
	C120.9,65.7,114.2,58.9,105.8,58.9z M95.6,85.7l-19.8,9.5c-0.5,0.3-1.1-0.1-1.1-0.7V74.9c0-0.6,0.6-1,1.2-0.7l19.8,10.1
	C96.3,84.5,96.2,85.4,95.6,85.7z"/>
</svg>
